<svg xmlns="http://www.w3.org/2000/svg" viewBox="0 0 33 28.88"><defs><style>.cls-1{fill:#00bc8d;}</style></defs><g id="Layer_2" data-name="Layer 2"><g id="Layer_1-2" data-name="Layer 1"><g id="heart-regular"><path class="cls-1" d="M29.55,2.08a9.72,9.72,0,0,0-13,1,9.7,9.7,0,0,0-13-1,9.76,9.76,0,0,0-.68,14.26L14.08,27.86a3.38,3.38,0,0,0,4.84,0L30.23,16.35A9.77,9.77,0,0,0,29.55,2.08ZM28,14.17,16.72,25.69a.27.27,0,0,1-.44,0L5,14.17a6.64,6.64,0,0,1,.47-9.71,6.52,6.52,0,0,1,8.79.67l2.26,2.3,2.26-2.3a6.52,6.52,0,0,1,8.79-.68A6.67,6.67,0,0,1,28,14.17Z"/></g></g></g></svg>