<svg xmlns="http://www.w3.org/2000/svg" viewBox="0 0 33 33"><defs><style>.cls-1{fill:#00bc8d;}</style></defs><g id="Layer_2" data-name="Layer 2"><g id="Layer_1-2" data-name="Layer 1"><g id="microscope-solid"><path class="cls-1" d="M10.31,20.62h.78v1a1,1,0,0,0,1,1H14.7a1,1,0,0,0,1-1v-1h.77a2.06,2.06,0,0,0,2.06-2.06V4.12A2.06,2.06,0,0,0,16.5,2.06V1a1,1,0,0,0-1-1H11.34a1,1,0,0,0-1,1v1A2.06,2.06,0,0,0,8.25,4.12V18.56A2.06,2.06,0,0,0,10.31,20.62Zm19.6,8.26h-.09a12.36,12.36,0,0,0-9.2-20.63v4.13a8.25,8.25,0,1,1,0,16.5H3.09A3.09,3.09,0,0,0,0,32a1,1,0,0,0,1,1H32a1,1,0,0,0,1-1A3.09,3.09,0,0,0,29.91,28.88ZM6.7,26.81H20.11a.51.51,0,0,0,.51-.51v-1a.51.51,0,0,0-.51-.52H6.7a.51.51,0,0,0-.51.52v1A.51.51,0,0,0,6.7,26.81Z"/></g></g></g></svg>