<svg xmlns="http://www.w3.org/2000/svg" viewBox="0 0 28.87 33"><defs><style>.cls-1{fill:#00bc8d;}</style></defs><g id="Layer_2" data-name="Layer 2"><g id="Layer_1-2" data-name="Layer 1"><g id="user-md-solid"><path class="cls-1" d="M14.44,16.5A8.25,8.25,0,1,0,6.19,8.25,8.25,8.25,0,0,0,14.44,16.5ZM6.7,27.33a1.55,1.55,0,1,0,1.55-1.55A1.54,1.54,0,0,0,6.7,27.33ZM20.62,18.6v3.16a5.16,5.16,0,0,1,4.13,5V29.5a1,1,0,0,1-.83,1l-2.08.41a.51.51,0,0,1-.6-.4l-.2-1a.51.51,0,0,1,.4-.61l1.25-.25V26.81c0-4-6.19-4.19-6.19.12v1.73l1.24.25a.52.52,0,0,1,.41.6l-.2,1a.53.53,0,0,1-.61.4l-2-.27a1,1,0,0,1-.89-1V26.81a5.17,5.17,0,0,1,4.13-5V18.85l-.43.12a11.18,11.18,0,0,1-7.4,0,7.27,7.27,0,0,0-1.45-.34v5.26a3.61,3.61,0,1,1-2.06,0V18.71A8.64,8.64,0,0,0,0,27.22v2.89A2.9,2.9,0,0,0,2.89,33H26a2.89,2.89,0,0,0,2.88-2.89V27.23a8.65,8.65,0,0,0-8.25-8.63Z"/></g></g></g></svg>