<svg xmlns="http://www.w3.org/2000/svg" viewBox="0 0 33 33"><defs><style>.cls-1{fill:#00bc8d;}</style></defs><g id="Layer_2" data-name="Layer 2"><g id="Layer_1-2" data-name="Layer 1"><g id="baby-carriage-solid"><path class="cls-1" d="M9.33,1.1A2.42,2.42,0,0,0,5.85.49,15.22,15.22,0,0,0,0,12.38H16.5ZM32,6.19h-3.1a4.13,4.13,0,0,0-4.12,4.12v4.13H0a11.4,11.4,0,0,0,3.89,8.42A5.19,5.19,0,1,0,10,26.22a16.78,16.78,0,0,0,8.82,0,4.89,4.89,0,0,0-.29,1.62,5.16,5.16,0,1,0,6.43-5,11.43,11.43,0,0,0,3.88-8.42V10.31H32a1,1,0,0,0,1-1V7.22A1,1,0,0,0,32,6.19ZM5.16,29.91a2.07,2.07,0,1,1,2.06-2.07A2.07,2.07,0,0,1,5.16,29.91Zm20.62-2.07a2.06,2.06,0,1,1-2.06-2.06A2.07,2.07,0,0,1,25.78,27.84Z"/></g></g></g></svg>