<svg xmlns="http://www.w3.org/2000/svg" viewBox="0 0 33 28.88"><defs><style>.cls-1{fill:#00bc8d;}</style></defs><g id="Layer_2" data-name="Layer 2"><g id="Layer_1-2" data-name="Layer 1"><g id="comment-medical-solid"><path class="cls-1" d="M16.5,0C7.39,0,0,6,0,13.41a11.92,11.92,0,0,0,3.67,8.42A16.28,16.28,0,0,1,.14,28a.52.52,0,0,0,0,.73.58.58,0,0,0,.36.15,14.71,14.71,0,0,0,9.06-3.32,19.48,19.48,0,0,0,6.92,1.25c9.11,0,16.5-6,16.5-13.4S25.61,0,16.5,0Zm6.19,15a.52.52,0,0,1-.52.52H18.56v3.61a.51.51,0,0,1-.51.51H15a.51.51,0,0,1-.51-.51V15.47H10.83a.52.52,0,0,1-.52-.52V11.86a.52.52,0,0,1,.52-.52h3.61V7.73A.51.51,0,0,1,15,7.22h3.1a.51.51,0,0,1,.51.51v3.61h3.61a.52.52,0,0,1,.52.52Z"/></g></g></g></svg>