<svg xmlns="http://www.w3.org/2000/svg" viewBox="0 0 33 26.4"><defs><style>.cls-1{fill:#00bc8d;}</style></defs><g id="Layer_2" data-name="Layer 2"><g id="Layer_1-2" data-name="Layer 1"><g id="laptop-medical-solid"><path class="cls-1" d="M12,11.55h2.89v2.89a.41.41,0,0,0,.41.41h2.48a.41.41,0,0,0,.41-.41V11.55H21a.41.41,0,0,0,.41-.41V8.66A.41.41,0,0,0,21,8.25H18.15V5.36A.41.41,0,0,0,17.74,5H15.26a.41.41,0,0,0-.41.41V8.25H12a.41.41,0,0,0-.41.41v2.48A.41.41,0,0,0,12,11.55ZM29.7,2.48A2.48,2.48,0,0,0,27.23,0H5.78A2.48,2.48,0,0,0,3.3,2.48V19.8H29.7Zm-3.3,14H6.6V3.3H26.4Zm5.78,4.95H19.67A1.62,1.62,0,0,1,18,23.1H14.85a1.76,1.76,0,0,1-1.69-1.65H.83a.83.83,0,0,0-.83.83v.82a3.32,3.32,0,0,0,3.3,3.3H29.7A3.32,3.32,0,0,0,33,23.1v-.82A.83.83,0,0,0,32.18,21.45Z"/></g></g></g></svg>